<svg xmlns="http://www.w3.org/2000/svg" xml:space="preserve" viewBox="0 0 99.34 49.67" style="shape-rendering:geometricPrecision; text-rendering:geometricPrecision; image-rendering:optimizeQuality; fill-rule:evenodd; clip-rule:evenodd">
    <defs><style type="text/css">.fil0 { fill: none } .fil1 { fill: currentColor; fill-rule: nonzero } </style></defs>
    <g id="Layer_x0020_1">
        <polygon class="fil0" points="0,0 99.34,0 99.34,49.67 0,49.67 " />
        <path class="fil1" d="M17.51 29.03l2.99 0 1.57 0c0.23,0 0.41,-0.18 0.41,-0.39 0,-0.22 -0.18,-0.4 -0.41,-0.4 -0.63,0 -1.16,-0.5 -1.17,-1.11l0 -17.13c0.01,-0.62 0.54,-1.12 1.17,-1.12 0.23,0 0.41,-0.18 0.41,-0.39 0,-0.22 -0.18,-0.4 -0.41,-0.4l-2.88 0 0 0 -1.68 0c-0.22,0 -0.4,0.18 -0.4,0.4 0,0.21 0.18,0.39 0.4,0.39 0.64,0 1.17,0.5 1.17,1.13l0 6.61c0,0.35 0.11,0.69 0.3,0.97l-11.34 0 0 -7.58c0,-0.63 0.53,-1.13 1.17,-1.13 0.22,0 0.4,-0.18 0.4,-0.39 0,-0.22 -0.18,-0.4 -0.4,-0.4l-2.89 0 0 0 -1.67 0c-0.22,0 -0.41,0.18 -0.41,0.4 0,0.21 0.19,0.39 0.41,0.39 0.64,0 1.16,0.5 1.17,1.12l0 17.12c-0.01,0.62 -0.53,1.12 -1.17,1.12 -0.22,0 -0.41,0.18 -0.41,0.4 0,0.21 0.19,0.39 0.41,0.39l4.56 0c0.22,0 0.4,-0.18 0.4,-0.39 0,-0.22 -0.18,-0.4 -0.4,-0.4 -0.64,0 -1.17,-0.51 -1.17,-1.12l0 -7.77c0,-0.36 -0.11,-0.69 -0.3,-0.98l11.34 0 0 8.64 0 0 0 0.11c0,0.61 -0.52,1.12 -1.17,1.12 -0.22,0 -0.4,0.18 -0.4,0.4 0,0.21 0.18,0.39 0.4,0.39l0 0zm16.82 0.38c0.06,0 0.12,0 0.19,0 0,0 0.22,-0.01 0.25,-0.01l0.08 0 0.01 -0.01c5.54,-0.28 9.87,-5.03 9.87,-10.83 0,-5.99 -4.67,-10.85 -10.4,-10.85 -0.15,0 -0.3,0 -0.44,0.01l-0.15 0 0 0.01c-5.51,0.31 -9.81,5.05 -9.81,10.83 0,5.98 4.67,10.85 10.4,10.85l0 0zm-8.43 -10.45c0.22,0 0.41,-0.18 0.41,-0.4 0,-1.16 0.15,-2.29 0.46,-3.37 1.09,-3.86 3.9,-6.48 7.15,-6.68 0.14,-0.01 0.28,-0.02 0.41,-0.02 5.15,0 9.37,4.31 9.57,9.68l-1.14 0c-0.23,0 -0.41,0.17 -0.41,0.39 0,1.49 -0.26,2.92 -0.75,4.26 -1.26,3.38 -3.89,5.61 -6.86,5.79l-0.2 0.01c-0.07,0 -0.14,0.01 -0.21,0.01 -5.15,0 -9.37,-4.31 -9.57,-9.67l1.14 0zm37.16 10.07c0.23,0 0.41,-0.18 0.41,-0.39 0,-0.22 -0.18,-0.4 -0.41,-0.4 -0.06,0 -0.12,0 -0.18,0 -0.87,-0.06 -1.65,-0.53 -2.08,-1.27l0 0 -0.05 -0.08 0 -0.01 -4.21 -6.82 -0.03 -0.04c-0.3,-0.42 -0.67,-0.78 -1.10,-1.07 3.13,-0.12 5.64,-2.51 5.64,-5.43 0,-2.96 -2.6,-5.39 -5.76,-5.42l-0.01 -0.01 -8.72 0c-0.23,0 -0.41,0.18 -0.41,0.4 0,0.21 0.18,0.39 0.41,0.39 0.64,0 1.17,0.5 1.17,1.13l0 17.11c-0.01,0.62 -0.53,1.12 -1.17,1.12 -0.23,0 -0.41,0.18 -0.41,0.4 0,0.21 0.18,0.39 0.41,0.39l4.55 0c0.23,0 0.41,-0.18 0.41,-0.39 0,-0.22 -0.18,-0.4 -0.41,-0.4 -0.64,0 -1.16,-0.51 -1.16,-1.12l0 -7.2c0,-0.35 -0.11,-0.68 -0.3,-0.97l3.1 0 0.01 0 0.1 0c0.26,0 0.5,0.13 0.64,0.32l4.07 6.64c1.09,1.88 3.06,3.04 5.25,3.11 0.08,0 0.16,0.01 0.24,0.01l0 0zm-7.82 -10.86l-5.29 0 0 -8.32c0,-0.35 -0.11,-0.69 -0.3,-0.97l5.42 0 0 0 0.1 0c1.93,0 3.51,2.08 3.51,4.64 0,2.53 -1.54,4.6 -3.43,4.65l-0.01 0zm16.35 11.24c1.46,0 2.85,-0.42 4.01,-1.2 0.1,-0.05 0.2,-0.12 0.28,-0.19 0.26,-0.18 0.5,-0.39 0.72,-0.6 1.37,-1.31 2.13,-3.06 2.13,-4.92l0 -12.5c0.01,-0.62 0.53,-1.12 1.17,-1.12 0.22,0 0.41,-0.17 0.41,-0.39 0,-0.22 -0.19,-0.4 -0.41,-0.4l-3.15 0c-0.22,0 -0.41,0.18 -0.41,0.4 0,0.22 0.19,0.39 0.41,0.39 0.65,0 1.17,0.51 1.17,1.13l0 12.49c0,1.65 -0.67,3.2 -1.91,4.39 -0.17,0.16 -0.36,0.31 -0.56,0.46l-0.07 0.05c-0.07,0.05 -0.14,0.1 -0.21,0.14 -0.89,0.58 -1.94,0.88 -3.01,0.88 -1.48,0 -2.86,-0.56 -3.89,-1.55 -1.04,-1.01 -1.61,-2.34 -1.61,-3.76l0 -12.99 0 -0.01 0 -0.1c0,-0.62 0.52,-1.13 1.17,-1.13 0.22,0 0.41,-0.17 0.41,-0.39 0,-0.22 -0.19,-0.4 -0.41,-0.4l-4.56 0c-0.22,0 -0.41,0.18 -0.41,0.4 0,0.22 0.19,0.39 0.41,0.39 0.64,0 1.16,0.5 1.17,1.13l0 12.49c0,3.81 3.2,6.91 7.15,6.91l0 0zm16.99 0c0.12,0 0.23,0 0.35,-0.01 0.09,0 0.17,0 0.26,-0.01l0.17 -0.02 0.06 -0.01 0.05 0 0.02 0c3.43,-0.37 6.01,-2.79 6.01,-5.64 0,-2.11 -1.4,-4.03 -3.65,-5.02l-5.87 -2.6c-1.54,-0.74 -2.5,-2.09 -2.5,-3.52 0,-2.1 1.96,-3.85 4.56,-4.06l0.22 -0.02c0.1,0 0.21,0 0.32,0 0.1,0 0.21,0 0.31,0l0.22 0.02c2.53,0.21 4.49,1.9 4.57,3.93 0,0.12 0.06,0.22 0.15,0.29 0.07,0.06 0.16,0.09 0.25,0.09l0.04 0 0.86 -0.14c0.11,-0.02 0.21,-0.08 0.27,-0.17l0.09 -0.17 -0.03 -0.14c-0.61,-2.43 -3.13,-4.27 -6.14,-4.48l-0.24 -0.01c-0.12,-0.01 -0.23,-0.01 -0.35,-0.01 -0.12,0 -0.24,0 -0.36,0.01l-0.23 0.01c-3.53,0.24 -6.29,2.72 -6.29,5.63 0,1.99 1.31,3.86 3.42,4.88l5.93 2.62c1.66,0.73 2.69,2.12 2.69,3.63 0,2.03 -1.88,3.79 -4.36,4.09 -0.03,0 -0.26,0.03 -0.26,0.03l-0.22 0.01c-0.11,0 -0.22,0 -0.32,0 -0.11,0 -0.22,0 -0.31,0l-0.23 -0.01c-2.64,-0.22 -4.62,-2 -4.62,-4.12 0,-0.1 0,-0.18 0.01,-0.26 0.02,-0.11 -0.02,-0.23 -0.11,-0.32 -0.07,-0.08 -0.18,-0.12 -0.32,-0.12 0,0 -0.94,0.08 -0.94,0.08 -0.11,0.01 -0.21,0.06 -0.28,0.15l-0.11 0.15 0.02 0.14c0.34,2.71 2.99,4.85 6.3,5.08l0.24 0.01c0.11,0.01 0.23,0.01 0.35,0.01l0 0z" />
        <path class="fil1" d="M4.05 41.73l4.9 0c1.75,0 3.17,-1.28 3.17,-2.86 0,-1.28 -0.94,-2.38 -2.25,-2.73 0.98,-0.43 1.64,-1.31 1.64,-2.31 0,-1.39 -1.24,-2.51 -2.83,-2.56 -0.02,0 -0.04,-0.01 -0.05,-0.01l-0.01 0 -4.57 0c-0.11,0 -0.21,0.09 -0.21,0.2 0,0.11 0.1,0.2 0.21,0.2 0.32,0 0.58,0.25 0.58,0.56l0 8.55c0,0.32 -0.26,0.57 -0.58,0.57 -0.11,0 -0.21,0.08 -0.21,0.19 0,0.11 0.1,0.2 0.21,0.2l0 0zm4.94 -0.39l-3.25 0 0 -4.45c0,-0.18 -0.05,-0.34 -0.15,-0.49l3.36 0c1.1,0 1.98,1.11 1.98,2.47 0,1.34 -0.86,2.44 -1.94,2.47l0 0zm-3.25 -5.33l0 -3.87c0,-0.17 -0.05,-0.34 -0.15,-0.48l2.95 0 0 0 0.05 0c0.02,0 0.05,0 0.07,0 0.93,0.06 1.66,1.01 1.66,2.17 0,1.17 -0.73,2.12 -1.66,2.18 -0.02,0 -0.05,0 -0.07,0l-2.85 0zm12.75 5.72c0.12,0 0.21,-0.09 0.21,-0.2 0,-0.11 -0.09,-0.19 -0.21,-0.19 -0.31,0 -0.58,-0.25 -0.58,-0.56l0 -3.15 3.01 -5.25 0.02 -0.01 0.02 -0.07c0.21,-0.35 0.68,-0.64 1.04,-0.64 0.11,0 0.2,-0.09 0.2,-0.2 0,-0.11 -0.09,-0.2 -0.2,-0.2l-1.57 0c-0.12,0 -0.21,0.09 -0.21,0.2 0,0.11 0.09,0.2 0.21,0.2 0.06,0 0.18,0.01 0.23,0.09 0.05,0.08 0.03,0.22 -0.06,0.37l-2.84 4.96 -2.84 -4.96c-0.09,-0.15 -0.12,-0.29 -0.07,-0.37 0.05,-0.08 0.17,-0.09 0.24,-0.09 0.11,0 0.2,-0.09 0.2,-0.2 0,-0.11 -0.09,-0.2 -0.2,-0.2l-2.38 0c-0.11,0 -0.21,0.09 -0.21,0.2 0,0.11 0.1,0.2 0.21,0.2 0.36,0 0.84,0.3 1.04,0.66l3.05 5.31 0 3.14c0,0.31 -0.27,0.57 -0.59,0.57 -0.11,0 -0.2,0.08 -0.2,0.19 0,0.11 0.09,0.2 0.2,0.2l2.28 0zm13.82 0.24l0.04 0 0.11 -0.04 0.01 -0.04c0.03,-0.03 0.05,-0.08 0.05,-0.12l0 -9.55c0,-0.31 0.26,-0.56 0.58,-0.56 0.11,0 0.2,-0.09 0.2,-0.2 0,-0.11 -0.09,-0.2 -0.2,-0.2l-1.57 0c-0.12,0 -0.21,0.09 -0.21,0.2 0,0.11 0.09,0.2 0.21,0.2 0.32,0 0.58,0.25 0.58,0.56l0 7.83 -6.8 -8.71c-0.04,-0.05 -0.1,-0.08 -0.17,-0.08l-0.84 0 -0.02 0 -0.8 0c-0.11,0 -0.2,0.09 -0.2,0.2 0,0.11 0.09,0.2 0.2,0.2 0.16,0 0.37,0.06 0.58,0.17l0 8.95c0,0.31 -0.26,0.57 -0.58,0.57 -0.11,0 -0.2,0.08 -0.2,0.19 0,0.11 0.09,0.2 0.2,0.2l1.57 0c0.11,0 0.21,-0.09 0.21,-0.2 0,-0.11 -0.1,-0.19 -0.21,-0.19 -0.32,0 -0.58,-0.26 -0.58,-0.57l0 -8.67c0.09,0.07 0.16,0.15 0.23,0.23l7.44 9.53 0.04 0.06 0.04 0.01c0.03,0.02 0.06,0.03 0.09,0.03l0 0zm8.02 -0.24c0.11,0 0.2,-0.09 0.2,-0.2 0,-0.11 -0.09,-0.19 -0.2,-0.19 -0.32,0 -0.58,-0.25 -0.58,-0.56l0 -9.12 1.97 0c0.81,0 1.62,0.64 1.81,1.42 0.02,0.09 0.1,0.15 0.19,0.15l0.03 0 0.02 -0.01c0.1,-0.02 0.17,-0.11 0.16,-0.2l0 -0.01 -0.38 -1.6 -0.02 -0.03 -0.01 -0.02c-0.01,-0.02 -0.02,-0.03 -0.03,-0.04l-0.07 -0.06 -3.83 0 0 0 -0.75 0 -3.81 0c-0.05,0 -0.1,0.02 -0.14,0.06l-0.02 0.02 -0.01 0.02 -0.02 0.02 -0.38 1.59 -0.01 0.03 0 0.02c-0.01,0.09 0.06,0.18 0.16,0.2l0.02 0.01 0.03 0c0.09,0 0.17,-0.06 0.19,-0.15 0.19,-0.78 1,-1.42 1.81,-1.42l1.97 0 0 9.11c0,0.32 -0.26,0.57 -0.58,0.57 -0.11,0 -0.2,0.08 -0.2,0.19 0,0.11 0.09,0.2 0.2,0.2l2.28 0zm13.23 0c0.11,0 0.2,-0.09 0.2,-0.2 0,-0.11 -0.09,-0.19 -0.2,-0.19 -0.03,0 -0.06,0 -0.09,0 -0.44,-0.03 -0.83,-0.27 -1.04,-0.64l0 0 -0.03 -0.04 0 0 -2.1 -3.41 -0.02 -0.02c-0.15,-0.22 -0.33,-0.39 -0.55,-0.54 1.57,-0.06 2.82,-1.25 2.82,-2.71 0,-1.49 -1.3,-2.7 -2.88,-2.71l0 -0.01 -4.36 0c-0.12,0 -0.21,0.09 -0.21,0.2 0,0.11 0.09,0.2 0.21,0.2 0.32,0 0.58,0.25 0.58,0.56l0 8.55c0,0.32 -0.26,0.57 -0.58,0.57 -0.12,0 -0.21,0.08 -0.21,0.19 0,0.11 0.09,0.2 0.21,0.2l2.27 0c0.12,0 0.21,-0.09 0.21,-0.2 0,-0.11 -0.09,-0.19 -0.21,-0.19 -0.32,0 -0.58,-0.26 -0.58,-0.57l0 -3.59c0,-0.18 -0.05,-0.34 -0.15,-0.49l1.55 0 0.01 0 0.05 0c0.13,0 0.25,0.07 0.32,0.16l2.03 3.32c0.55,0.94 1.53,1.52 2.63,1.56 0.04,0 0.08,0 0.12,0l0 0zm-3.91 -5.43l-2.65 0 0 -4.16c0,-0.17 -0.05,-0.34 -0.15,-0.48l2.71 0 0 0 0.05 0c0.97,0 1.76,1.04 1.76,2.32 0,1.26 -0.77,2.29 -1.72,2.32l0 0zm10.06 5.62c0.03,0 0.06,0 0.1,0 0,0 0.11,0 0.12,0l0.04 0 0.01 -0.01c2.77,-0.14 4.93,-2.51 4.93,-5.41 0,-3 -2.33,-5.43 -5.2,-5.43 -0.07,0 -0.15,0 -0.22,0.01l-0.07 0 -0.01 0c-2.75,0.16 -4.9,2.53 -4.9,5.42 0,2.99 2.34,5.42 5.2,5.42l0 0zm-4.21 -5.22c0.11,0 0.2,-0.09 0.2,-0.2 0,-0.58 0.08,-1.15 0.23,-1.69 0.55,-1.93 1.95,-3.24 3.58,-3.34 0.06,0 0.13,-0.01 0.2,-0.01 2.58,0 4.69,2.16 4.79,4.84l-0.58 0c-0.11,0 -0.2,0.09 -0.2,0.2 0,0.74 -0.13,1.46 -0.37,2.13 -0.63,1.69 -1.95,2.8 -3.43,2.89l-0.1 0.01c-0.04,0 -0.07,0 -0.11,0 -2.57,0 -4.69,-2.15 -4.79,-4.83l0.58 0z" />
    </g>
</svg>
